<svg id="visual" viewBox="0 0 900 600" width="900" height="600" xmlns="http://www.w3.org/2000/svg" xmlns:xlink="http://www.w3.org/1999/xlink" version="1.1"><path d="M389 600L416 600L416 514L318 514L318 429L324 429L324 343L424 343L424 257L366 257L366 171L296 171L296 86L467 86L467 0L900 0L900 86L900 86L900 171L900 171L900 257L900 257L900 343L900 343L900 429L900 429L900 514L900 514L900 600L900 600Z" fill="#ffffff"></path><path d="M519 600L425 600L425 514L443 514L443 429L539 429L539 343L424 343L424 257L489 257L489 171L538 171L538 86L405 86L405 0L900 0L900 86L900 86L900 171L900 171L900 257L900 257L900 343L900 343L900 429L900 429L900 514L900 514L900 600L900 600Z" fill="#ffffff"></path><path d="M547 600L518 600L518 514L580 514L580 429L594 429L594 343L589 343L589 257L639 257L639 171L564 171L564 86L598 86L598 0L900 0L900 86L900 86L900 171L900 171L900 257L900 257L900 343L900 343L900 429L900 429L900 514L900 514L900 600L900 600Z" fill="#ffffff"></path><path d="M641 600L630 600L630 514L679 514L679 429L718 429L718 343L746 343L746 257L697 257L697 171L732 171L732 86L664 86L664 0L900 0L900 86L900 86L900 171L900 171L900 257L900 257L900 343L900 343L900 429L900 429L900 514L900 514L900 600L900 600Z" fill="#f6f6f6"></path><path d="M750 600L728 600L728 514L760 514L760 429L733 429L733 343L790 343L790 257L824 257L824 171L792 171L792 86L787 86L787 0L900 0L900 86L900 86L900 171L900 171L900 257L900 257L900 343L900 343L900 429L900 429L900 514L900 514L900 600L900 600Z" fill="#eeeeee"></path></svg>