<svg xmlns="http://www.w3.org/2000/svg" version="1.1" xmlns:xlink="http://www.w3.org/1999/xlink" xmlns:svgjs="http://svgjs.dev/svgjs" viewBox="0 0 800 800" opacity="0.86"><defs><symbol id="bbburst-shape-1" viewBox="0 0 194 167"><path d="m97 0 96.129 166.5H.871L97 0Z"></path></symbol><symbol id="bbburst-shape-4" viewBox="0 0 149 143"><path d="M71.647 2.781c.898-2.764 4.808-2.764 5.706 0l15.445 47.534a3 3 0 0 0 2.853 2.073h49.98c2.906 0 4.115 3.719 1.764 5.427L106.96 87.193a2.999 2.999 0 0 0-1.09 3.354l15.445 47.534c.898 2.764-2.266 5.062-4.617 3.354l-40.435-29.378a3 3 0 0 0-3.526 0l-40.435 29.378c-2.351 1.708-5.515-.59-4.617-3.354L43.13 90.547a3 3 0 0 0-1.09-3.354L1.605 57.815c-2.35-1.708-1.142-5.427 1.764-5.427h49.98a3 3 0 0 0 2.853-2.073L71.647 2.781Z"></path></symbol><symbol id="bbburst-shape-8" viewBox="0 0 87 168"><path d="m12 12 31.2546 18.0749c16.4102 9.4902 20.014 31.6325 7.4603 45.8369L36.3296 92.1884c-12.5684 14.2206-8.9394 36.3916 7.5068 45.8636L75 156" stroke-width="14" stroke-linecap="round" stroke-linejoin="round"></path></symbol><symbol id="bbburst-shape-10" viewBox="0 0 145 145"><circle cx="72.5" cy="72.5" r="61.5" fill="none" stroke-width="22"></circle></symbol></defs><use xlink:href="#bbburst-shape-8" width="21.2886009574887" opacity="0.8894757549139827" transform="matrix(0.9996084712568257,-0.02798042515030642,0.02798042515030642,0.9996084712568257,347.2714133059045,39.42982564038857)" fill="none" stroke="#ffb748"></use><use xlink:href="#bbburst-shape-8" width="47.144908123656236" opacity="0.34412884444004876" transform="matrix(0.9967413107460752,-0.08066448693319724,0.08066448693319724,0.9967413107460752,225.64739153804,-267.0633464014046)" fill="none" stroke="#35bdaa"></use><use xlink:href="#bbburst-shape-10" width="34.92888305137736" opacity="0.685356444386253" transform="matrix(0.9262177422007754,0.37698898396703584,-0.37698898396703584,0.9262177422007754,445.5967550003274,-87.17335626258443)" fill="none" stroke="#ffb748"></use><use xlink:href="#bbburst-shape-4" width="45.52522819133195" opacity="0.20839176432131745" transform="matrix(0.9936905851674509,0.11215623455505691,-0.11215623455505691,0.9936905851674509,381.10325423939963,-353.82876923928285)" fill="#35bdaa"></use><use xlink:href="#bbburst-shape-4" width="45.097176768850034" opacity="0.5792158088972958" transform="matrix(0.953300474769579,-0.30202351697193247,0.30202351697193247,0.953300474769579,71.84223956974989,61.70494447296426)" fill="#35bdaa"></use><use xlink:href="#bbburst-shape-10" width="32.06202325749081" opacity="0.6615506932897861" transform="matrix(0.9479052750751383,0.3185523339809746,-0.3185523339809746,0.9479052750751383,618.255499851786,-93.60089965113269)" fill="none" stroke="#35bdaa"></use><use xlink:href="#bbburst-shape-1" width="34.18829073289343" opacity="0.31857328963288756" transform="matrix(0.9479954108708599,-0.31828399420610126,0.31828399420610126,0.9479954108708599,410.49872505542453,291.4489763471425)" fill="#8b7eff"></use><use xlink:href="#bbburst-shape-10" width="46.91219077054826" opacity="0.06899157807172118" transform="matrix(0.827721855609402,0.561138601190943,-0.561138601190943,0.827721855609402,376.1323733581389,406.63862265263765)" fill="none" stroke="#35bdaa"></use><use xlink:href="#bbburst-shape-1" width="38.43915652512567" opacity="0.5902137714034263" transform="matrix(0.793287230956072,0.6088475746868405,-0.6088475746868405,0.793287230956072,485.8496336691836,188.16959618156864)" fill="#35bdaa"></use><use xlink:href="#bbburst-shape-10" width="44.11765510357373" opacity="0.4013348219120997" transform="matrix(0.8674415660930275,-0.49753907325362484,0.49753907325362484,0.8674415660930275,132.53444469497106,328.8456653379258)" fill="none" stroke="#35bdaa"></use><use xlink:href="#bbburst-shape-4" width="38.97892192770084" opacity="0.6488580260511259" transform="matrix(0.9007056919798503,-0.4344298061080743,0.4344298061080743,0.9007056919798503,57.63218618287718,1.8463219138680529)" fill="#35bdaa"></use><use xlink:href="#bbburst-shape-10" width="41.03909906768338" opacity="0.3131509441168463" transform="matrix(0.8348321568060516,-0.550504559438481,0.550504559438481,0.8348321568060516,462.45947416759975,2.152345414026513)" fill="none" stroke="#8b7eff"></use><use xlink:href="#bbburst-shape-8" width="23.896107275603647" opacity="0.7810762384441823" transform="matrix(0.9434171363369784,-0.3316083636848368,0.3316083636848368,0.9434171363369784,268.52333678927505,124.32249758702744)" fill="none" stroke="#35bdaa"></use><use xlink:href="#bbburst-shape-10" width="41.79339789156577" opacity="0.20507774372431875" transform="matrix(0.8772467227147926,0.48003977698327843,-0.48003977698327843,0.8772467227147926,217.47384419523743,71.84366962557931)" fill="none" stroke="#ffb748"></use><use xlink:href="#bbburst-shape-10" width="28.742471103100772" opacity="0.19469563016477875" transform="matrix(0.8523904607221916,-0.5229058256223676,0.5229058256223676,0.8523904607221916,143.38264853859866,427.2314889036369)" fill="none" stroke="#ffb748"></use><use xlink:href="#bbburst-shape-8" width="48.88364309075314" opacity="0.21048642522755434" transform="matrix(0.7840142903849374,-0.6207427748046714,0.6207427748046714,0.7840142903849374,0.2604852966934459,431.3037512772087)" fill="none" stroke="#35bdaa"></use><use xlink:href="#bbburst-shape-10" width="32.434653921650494" opacity="0.7083305948233705" transform="matrix(0.7295831425480027,0.6838921246145336,-0.6838921246145336,0.7295831425480027,683.9370839283843,-32.282231630584704)" fill="none" stroke="#35bdaa"></use><use xlink:href="#bbburst-shape-10" width="25.053915939254278" opacity="0.6307938165370106" transform="matrix(0.9998691743457288,0.01617511029917985,-0.01617511029917985,0.9998691743457288,435.07660659021053,160.82048901723363)" fill="none" stroke="#ffb748"></use><use xlink:href="#bbburst-shape-10" width="44.30450177485298" opacity="0.29357129750827693" transform="matrix(0.8697733210856874,0.4934514869038026,-0.4934514869038026,0.8697733210856874,880.8232708484602,138.2291408509294)" fill="none" stroke="#8b7eff"></use><use xlink:href="#bbburst-shape-4" width="58.963916177750974" opacity="0.23229970683006151" transform="matrix(0.9700829480596872,0.24277370921050362,-0.24277370921050362,0.9700829480596872,205.26588307079928,-218.87029225520752)" fill="#35bdaa"></use><use xlink:href="#bbburst-shape-10" width="44.654813014049665" opacity="-0.07423762693183567" transform="matrix(0.9461953084365178,0.32359610364267827,-0.32359610364267827,0.9461953084365178,856.4603164684206,349.67013256153166)" fill="none" stroke="#ffb748"></use><use xlink:href="#bbburst-shape-4" width="55.453180379034315" opacity="0.16479166497838105" transform="matrix(0.9678223775521332,-0.25163434882649915,0.25163434882649915,0.9678223775521332,-78.54138341421184,-114.30952415430153)" fill="#ffb748"></use><use xlink:href="#bbburst-shape-8" width="29.22221964547844" opacity="0.4666467314850643" transform="matrix(0.9844255831977322,-0.17580179505853963,0.17580179505853963,0.9844255831977322,527.0318250122907,121.81230345734821)" fill="none" stroke="#35bdaa"></use><use xlink:href="#bbburst-shape-10" width="46.50463518794557" opacity="0.4863936281388349" transform="matrix(0.9738460077119413,0.22720905189607565,-0.22720905189607565,0.9738460077119413,666.7783270441512,-113.14354760825762)" fill="none" stroke="#35bdaa"></use><use xlink:href="#bbburst-shape-4" width="31.0008414841293" opacity="0.25616231131333567" transform="matrix(0.7707099642252191,0.6371861196259391,-0.6371861196259391,0.7707099642252191,695.4084903673325,412.44545890981306)" fill="#8b7eff"></use><use xlink:href="#bbburst-shape-4" width="46.42927357174074" opacity="-0.04449563180023808" transform="matrix(0.7741322664204681,0.6330238811345978,-0.6330238811345978,0.7741322664204681,980.8707779861779,-242.81440697052483)" fill="#ffb748"></use><use xlink:href="#bbburst-shape-4" width="30.58126141889478" opacity="0.686987697478092" transform="matrix(0.9665618078455969,-0.2564337567759978,0.2564337567759978,0.9665618078455969,372.7494628772761,125.59654885068466)" fill="#8b7eff"></use><use xlink:href="#bbburst-shape-4" width="56.8990570403956" opacity="-0.04238978001682092" transform="matrix(0.8123206951361013,0.5832110152025605,-0.5832110152025605,0.8123206951361013,268.4801876984867,-262.8778005734482)" fill="#35bdaa"></use><use xlink:href="#bbburst-shape-10" width="26.210366441890937" opacity="0.5844727221206072" transform="matrix(0.8047329008167315,-0.5936370594421212,0.5936370594421212,0.8047329008167315,105.20365630286341,266.9236892543973)" fill="none" stroke="#8b7eff"></use><use xlink:href="#bbburst-shape-4" width="53.57905736598228" opacity="-0.05875357001445347" transform="matrix(0.8221480745308224,-0.5692736982728618,0.5692736982728618,0.8221480745308224,-194.4367138139871,415.3014716795028)" fill="#8b7eff"></use><use xlink:href="#bbburst-shape-4" width="34.44875872534917" opacity="0.3912646528664576" transform="matrix(0.8706743285564432,-0.49185995323139153,0.49185995323139153,0.8706743285564432,-85.64792031116674,58.07470546790677)" fill="#ffb748"></use><use xlink:href="#bbburst-shape-10" width="27.94822266173112" opacity="0.7700106298446456" transform="matrix(0.7235661068064252,0.6902550898624312,-0.6902550898624312,0.7235661068064252,567.5856956422052,132.98539399226183)" fill="none" stroke="#ffb748"></use><use xlink:href="#bbburst-shape-4" width="32.263032904053944" opacity="0.9080925493155939" transform="matrix(0.8349948241870266,-0.550257797383078,0.550257797383078,0.8349948241870266,168.15178560003892,33.579996681238924)" fill="#ffb748"></use><use xlink:href="#bbburst-shape-4" width="35.77307973478313" opacity="0.1391585823794972" transform="matrix(0.8743814911220118,0.4852391245388682,-0.4852391245388682,0.8743814911220118,721.1897038070097,401.71424801188823)" fill="#35bdaa"></use><use xlink:href="#bbburst-shape-10" width="40.00566962008244" opacity="0.427208586151381" transform="matrix(0.8776754887354555,-0.4792553979591458,0.4792553979591458,0.8776754887354555,-48.26706727115257,-37.98746551291214)" fill="none" stroke="#8b7eff"></use><use xlink:href="#bbburst-shape-4" width="42.60732748778155" opacity="0.12576276627124194" transform="matrix(0.8948891574973631,-0.4462884670184293,0.4462884670184293,0.8948891574973631,-147.57258649321113,231.20246506124357)" fill="#ffb748"></use><use xlink:href="#bbburst-shape-10" width="43.482460925018046" opacity="0.572187560826654" transform="matrix(0.9874992195871478,0.15762389195415133,-0.15762389195415133,0.9874992195871478,395.5053512554447,-185.34739697640396)" fill="none" stroke="#35bdaa"></use><use xlink:href="#bbburst-shape-1" width="27.83663341452167" opacity="0.8380288198270993" transform="matrix(0.8801602023179574,-0.474676751332538,0.474676751332538,0.8801602023179574,138.27123569477942,12.652742276801064)" fill="#8b7eff"></use><use xlink:href="#bbburst-shape-10" width="42.360451021278436" opacity="0.2782802498331225" transform="matrix(0.7503420570461642,-0.6610497692517039,0.6610497692517039,0.7503420570461642,368.57400213211116,322.51160667831334)" fill="none" stroke="#ffb748"></use><use xlink:href="#bbburst-shape-10" width="40.20561228457194" opacity="0.08784074829904154" transform="matrix(0.7331198882519144,0.6800994261499568,-0.6800994261499568,0.7331198882519144,882.9189817974511,-249.8250455414048)" fill="none" stroke="#35bdaa"></use><use xlink:href="#bbburst-shape-4" width="42.96563803148854" opacity="0.09894881239238684" transform="matrix(0.822737759633869,-0.5684211281019047,0.5684211281019047,0.822737759633869,507.45075987167434,283.5778842593253)" fill="#35bdaa"></use><use xlink:href="#bbburst-shape-4" width="42.752394293742384" opacity="0.07882525604069679" transform="matrix(0.9547773783673095,0.2973216402451183,-0.2973216402451183,0.9547773783673095,746.0742536292655,344.2531239372498)" fill="#8b7eff"></use><use xlink:href="#bbburst-shape-1" width="27.224591986153744" opacity="0.19695637184739523" transform="matrix(0.992453464617755,-0.12262186007484427,0.12262186007484427,0.992453464617755,698.0887539852606,27.63119021984926)" fill="#ffb748"></use><use xlink:href="#bbburst-shape-10" width="48.739922772357744" opacity="0.3823768384638394" transform="matrix(0.8787674380528143,0.4772502381540456,-0.4772502381540456,0.8787674380528143,319.4258103200367,158.17170526970614)" fill="none" stroke="#8b7eff"></use><use xlink:href="#bbburst-shape-10" width="32.239152794272954" opacity="0.13756110874887362" transform="matrix(0.9899617336126125,-0.14133565007707993,0.14133565007707993,0.9899617336126125,681.2114282655639,-153.43594500588947)" fill="none" stroke="#8b7eff"></use><use xlink:href="#bbburst-shape-10" width="46.869281024856406" opacity="0.42735365334269093" transform="matrix(0.963727262854348,-0.26688904591846135,0.26688904591846135,0.963727262854348,122.14130182906672,231.35044399212597)" fill="none" stroke="#35bdaa"></use><use xlink:href="#bbburst-shape-4" width="33.88626959382461" opacity="0.5001014344671634" transform="matrix(0.8703670932479725,-0.49240341488567607,0.49240341488567607,0.8703670932479725,327.1516765762699,237.21607766347938)" fill="#35bdaa"></use><use xlink:href="#bbburst-shape-4" width="41.32510888538018" opacity="0.4778469249606371" transform="matrix(0.9986375864651087,-0.05218209366384708,0.05218209366384708,0.9986375864651087,197.71322247646245,-169.68610386865302)" fill="#ffb748"></use><use xlink:href="#bbburst-shape-1" width="31.691044110206047" opacity="0.66000098625986" transform="matrix(0.9692283798767151,0.2461632540440554,-0.2461632540440554,0.9692283798767151,634.3637298136181,-14.51632721839394)" fill="#ffb748"></use><use xlink:href="#bbburst-shape-10" width="35.75362596620437" opacity="0.46744562605048123" transform="matrix(0.8655999223647578,-0.5007362323640315,0.5007362323640315,0.8655999223647578,232.90142117730372,297.3668547307292)" fill="none" stroke="#35bdaa"></use><use xlink:href="#bbburst-shape-8" width="44.64990689463995" opacity="0.22841398410375457" transform="matrix(0.7352171888394177,0.6778316053674867,-0.6778316053674867,0.7352171888394177,404.86773407887483,331.8857848133251)" fill="none" stroke="#ffb748"></use><use xlink:href="#bbburst-shape-4" width="21.556488153404818" opacity="0.9153749491191514" transform="matrix(0.9482541568693084,-0.3175122894945599,0.3175122894945599,0.9482541568693084,290.4498176537139,50.30409493970876)" fill="#ffb748"></use><use xlink:href="#bbburst-shape-10" width="24.788225071647307" opacity="0.6263769726294259" transform="matrix(0.9372475352401011,0.348664678002168,-0.348664678002168,0.9372475352401011,682.3648887098907,87.05797503924333)" fill="none" stroke="#35bdaa"></use><use xlink:href="#bbburst-shape-4" width="50.28579655221951" opacity="0.10725973262647626" transform="matrix(0.9200963190022684,0.39169217985361404,-0.39169217985361404,0.9200963190022684,330.280491812233,-324.3721207549298)" fill="#ffb748"></use><use xlink:href="#bbburst-shape-10" width="30.55948682112235" opacity="0.7208099914307085" transform="matrix(0.7212148616458092,-0.6927114286203284,0.6927114286203284,0.7212148616458092,49.60200251495911,231.20308064166534)" fill="none" stroke="#35bdaa"></use><use xlink:href="#bbburst-shape-1" width="49.702554936440485" opacity="0.45265383288108685" transform="matrix(0.8933422938908978,0.4493768417995623,-0.4493768417995623,0.8933422938908978,680.424938369767,-181.89803998875684)" fill="#35bdaa"></use><use xlink:href="#bbburst-shape-4" width="48.66533801240106" opacity="0.21191986942541818" transform="matrix(0.9960551537625592,-0.08873629845246299,0.08873629845246299,0.9960551537625592,442.95725273644274,-335.66341216501576)" fill="#8b7eff"></use><use xlink:href="#bbburst-shape-10" width="32.73740638451913" opacity="0.8230776209469289" transform="matrix(0.9982169908247105,0.059689523610595936,-0.059689523610595936,0.9982169908247105,476.5489934541585,-39.96026949906775)" fill="none" stroke="#ffb748"></use><use xlink:href="#bbburst-shape-10" width="52.113869848844914" opacity="0.2619906893135032" transform="matrix(0.9830921263787559,0.18311163549074747,-0.18311163549074747,0.9830921263787559,693.941853980733,-220.76996499628967)" fill="none" stroke="#35bdaa"></use><use xlink:href="#bbburst-shape-1" width="39.385706276453085" opacity="0.42841446364978764" transform="matrix(0.8994915099969195,0.4369382375616279,-0.4369382375616279,0.8994915099969195,576.6114579914232,-224.82329136762093)" fill="#35bdaa"></use><use xlink:href="#bbburst-shape-4" width="29.677463152708704" opacity="0.7908799061823281" transform="matrix(0.8759981071433455,0.4823145408146803,-0.4823145408146803,0.8759981071433455,667.1216178536117,77.82858253232808)" fill="#ffb748"></use><use xlink:href="#bbburst-shape-10" width="44.73059616832053" opacity="0.4719187496699586" transform="matrix(0.8964409930206815,0.44316311447602963,-0.44316311447602963,0.8964409930206815,794.8408203917626,33.88201477126563)" fill="none" stroke="#35bdaa"></use></svg>