<svg xmlns="http://www.w3.org/2000/svg" version="1.1" xmlns:xlink="http://www.w3.org/1999/xlink" viewBox="0 0 700 700" style="overflow: hidden; display: block;" width="700" height="700"><defs><linearGradient id="two-3" x1="350" y1="-350" x2="350" y2="350" spreadMethod="pad" gradientUnits="userSpaceOnUse"><stop offset="0%" stop-color="hsl(1.4, 100%, 67%)" stop-opacity="1"></stop><stop offset="100%" stop-color="hsl(167, 52%, 78%)" stop-opacity="1"></stop></linearGradient></defs><g id="two-0" transform="matrix(1 0 0 1 0 0)" opacity="1"><path transform="matrix(1 0 0 1 350 350)" id="two-731" d="M 237.427086 77.144736 C 214.576761 112.405876 132.751162 44.605816 110.133176 80.016436 C 75.410411 134.378243 233.807533 213.457552 188.301859 259.175275 C 157.622177 289.997919 110.416537 201.589061 67.270228 207.036476 C 39.435458 210.55074 27.347008 265.289945 0 259.023716 C -36.739319 250.605356 -14.393882 165.991786 -50.947231 156.799452 C -101.742948 144.025487 -136.28546 276.512301 -180.520293 248.464867 C -218.61807 224.308682 -128.365834 148.950268 -156.709301 113.855971 C -192.793647 69.177075 -301.996496 157.213579 -330.622855 107.425877 C -350.652039 72.590603 -282.058665 39.215131 -273.292933 0 C -266.785755 -29.11107 -289.770952 -62.935493 -277.845938 -90.277618 C -265.570648 -118.422869 -236.64301 -143.957245 -206.551654 -150.068561 C -164.131306 -158.683799 -114.493103 -84.086484 -81.128847 -111.664278 C -28.181022 -155.429205 -143.891515 -263.036336 -103.525591 -318.619006 C -83.013535 -346.863492 -33.740729 -349.282331 -0.000001 -340.334778 C 36.5945 -330.630446 61.333695 -293.082763 85.856431 -264.238925 C 105.609134 -241.005638 130.330566 -216.222077 135.225829 -186.122387 C 141.062635 -150.233395 86.635029 -107.866464 108.909951 -79.127712 C 135.242897 -45.153362 215.865209 -113.833443 239.158735 -77.707384 C 254.34058 -54.161777 205.196248 -28.01486 204.968884 -0.000001 C 204.744736 27.618425 252.44721 53.966654 237.427086 77.144736 Z " fill="#35bdaa" stroke="undefined" stroke-width="1" stroke-opacity="1" fill-opacity="1" visibility="visible" stroke-linecap="butt" stroke-linejoin="miter" stroke-miterlimit="4"></path></g></svg>